<?xml version="1.0" encoding="UTF-8"?>
<!DOCTYPE svg PUBLIC "-//W3C//DTD SVG 1.1//EN" "http://www.w3.org/Graphics/SVG/1.1/DTD/svg11.dtd">
<svg xmlns="http://www.w3.org/2000/svg" version="1.1" width="338px" height="165px" style="shape-rendering:geometricPrecision; text-rendering:geometricPrecision; image-rendering:optimizeQuality; fill-rule:evenodd; clip-rule:evenodd" xmlns:xlink="http://www.w3.org/1999/xlink">
<g><path style="opacity:1" fill="#fdfdfd" d="M -0.5,-0.5 C 41.1667,-0.5 82.8333,-0.5 124.5,-0.5C 125.675,2.81703 126.508,6.15037 127,9.5C 125.167,10.6667 123.333,11.8333 121.5,13C 114.259,14.2875 108.093,17.4542 103,22.5C 102.333,24.8333 102.333,27.1667 103,29.5C 104.556,32.8975 106.723,35.8975 109.5,38.5C 109.023,39.4776 108.357,40.3109 107.5,41C 109.296,41.436 110.629,40.7693 111.5,39C 108.627,35.7891 106.127,32.2891 104,28.5C 103.679,23.1321 106.179,19.6321 111.5,18C 118.084,16.6241 123.918,13.7907 129,9.5C 128.641,5.94193 127.475,2.60859 125.5,-0.5C 196.167,-0.5 266.833,-0.5 337.5,-0.5C 337.5,54.5 337.5,109.5 337.5,164.5C 224.833,164.5 112.167,164.5 -0.5,164.5C -0.5,109.5 -0.5,54.5 -0.5,-0.5 Z"/></g>
<g><path style="opacity:1" fill="#ebebeb" d="M 124.5,-0.5 C 124.833,-0.5 125.167,-0.5 125.5,-0.5C 127.475,2.60859 128.641,5.94193 129,9.5C 123.918,13.7907 118.084,16.6241 111.5,18C 106.179,19.6321 103.679,23.1321 104,28.5C 106.127,32.2891 108.627,35.7891 111.5,39C 110.629,40.7693 109.296,41.436 107.5,41C 108.357,40.3109 109.023,39.4776 109.5,38.5C 106.723,35.8975 104.556,32.8975 103,29.5C 102.333,27.1667 102.333,24.8333 103,22.5C 108.093,17.4542 114.259,14.2875 121.5,13C 123.333,11.8333 125.167,10.6667 127,9.5C 126.508,6.15037 125.675,2.81703 124.5,-0.5 Z"/></g>
<g><path style="opacity:1" fill="#ededed" d="M 242.5,17.5 C 245.32,17.2475 247.986,17.7475 250.5,19C 247.11,19.2463 243.777,19.7463 240.5,20.5C 239.299,24.5347 237.633,28.368 235.5,32C 227.464,34.9435 219.131,36.2768 210.5,36C 209.075,37.7141 209.408,39.0475 211.5,40C 205.435,39.1772 205.102,37.1772 210.5,34C 217.533,33.6643 224.533,32.9977 231.5,32C 232.833,31.3333 234.167,30.6667 235.5,30C 236.791,26.5552 237.957,23.0552 239,19.5C 240.302,18.9152 241.469,18.2485 242.5,17.5 Z"/></g>
<g><path style="opacity:1" fill="#774433" d="M 217.5,47.5 C 196.107,44.2706 174.774,43.2706 153.5,44.5C 145.774,44.4494 138.107,45.1161 130.5,46.5C 128.667,46.5854 127.334,47.2521 126.5,48.5C 125.167,48.5 123.833,48.5 122.5,48.5C 116.809,48.9797 111.142,49.6464 105.5,50.5C 136.193,41.256 167.527,39.0894 199.5,44C 205.752,44.5768 211.752,45.7435 217.5,47.5 Z"/></g>
<g><path style="opacity:1" fill="#7a451c" d="M 153.5,44.5 C 144.611,45.7389 135.611,47.0723 126.5,48.5C 127.334,47.2521 128.667,46.5854 130.5,46.5C 138.107,45.1161 145.774,44.4494 153.5,44.5 Z"/></g>
<g><path style="opacity:1" fill="#f9e085" d="M 199.5,47.5 C 216.786,49.0721 233.12,53.9054 248.5,62C 252.633,65.1311 256.466,68.6311 260,72.5C 262.59,76.9746 263.09,81.6413 261.5,86.5C 261.167,86.5 260.833,86.5 260.5,86.5C 259.841,77.8313 255.175,72.498 246.5,70.5C 246.167,70.5 245.833,70.5 245.5,70.5C 244.158,69.207 242.491,68.3736 240.5,68C 236.786,67.6805 233.119,67.1805 229.5,66.5C 228.5,66.5 227.5,66.5 226.5,66.5C 226.389,65.8826 226.056,65.3826 225.5,65C 221.565,64.9162 217.898,63.9162 214.5,62C 212.402,61.3224 210.402,61.4891 208.5,62.5C 208.141,60.629 207.141,59.129 205.5,58C 203.285,57.8295 201.285,57.1628 199.5,56C 195.287,55.4697 191.62,56.6363 188.5,59.5C 187.866,57.4332 186.866,55.5998 185.5,54C 181.527,53.0023 177.527,52.6689 173.5,53C 172.309,55.5782 170.643,57.7449 168.5,59.5C 166.883,55.0476 163.716,52.7143 159,52.5C 150.841,54.5045 142.674,56.3378 134.5,58C 133.5,59 132.5,60 131.5,61C 123.839,62.4051 116.173,62.7384 108.5,62C 105.671,63.3557 103.004,64.8557 100.5,66.5C 94.8318,66.3824 90.1651,68.3824 86.5,72.5C 86.1667,72.5 85.8333,72.5 85.5,72.5C 84.1266,72.3433 82.7932,72.51 81.5,73C 78.9388,75.1038 76.2721,76.9371 73.5,78.5C 72.5269,80.9479 72.1936,83.6146 72.5,86.5C 71.6618,86.8417 71.3284,87.5084 71.5,88.5C 70.8826,88.3893 70.3826,88.056 70,87.5C 69.5017,84.1832 69.335,80.8499 69.5,77.5C 78.1073,66.0056 89.4406,58.1722 103.5,54C 108.399,52.3094 113.399,51.1427 118.5,50.5C 127.818,49.479 137.151,48.3124 146.5,47C 164.176,46.3621 181.843,46.5287 199.5,47.5 Z"/></g>
<g><path style="opacity:1" fill="#eccd81" d="M 153.5,44.5 C 169.074,44.1176 184.407,45.1176 199.5,47.5C 181.843,46.5287 164.176,46.3621 146.5,47C 137.151,48.3124 127.818,49.479 118.5,50.5C 119.833,49.8333 121.167,49.1667 122.5,48.5C 123.833,48.5 125.167,48.5 126.5,48.5C 135.611,47.0723 144.611,45.7389 153.5,44.5 Z"/></g>
<g><path style="opacity:1" fill="#774328" d="M 122.5,48.5 C 121.167,49.1667 119.833,49.8333 118.5,50.5C 113.399,51.1427 108.399,52.3094 103.5,54C 89.4406,58.1722 78.1073,66.0056 69.5,77.5C 66.9455,78.388 64.2788,78.7214 61.5,78.5C 59.9826,78.4894 58.8159,77.8228 58,76.5C 57.2042,73.9615 57.3709,71.6282 58.5,69.5C 59.2216,69.9175 59.7216,70.5842 60,71.5C 60.9025,70.2986 62.0692,69.4652 63.5,69C 66.8333,68.6667 70.1667,68.3333 73.5,68C 73.9574,67.586 74.2907,67.086 74.5,66.5C 68.8684,63.0789 63.2017,62.7456 57.5,65.5C 49.9833,69.2588 48.65,74.5921 53.5,81.5C 53.7215,83.6636 54.7215,85.3303 56.5,86.5C 51.0957,84.2361 48.0957,80.0694 47.5,74C 50.7303,63.0421 58.0637,58.7088 69.5,61C 72,61.8854 74.3333,63.0521 76.5,64.5C 85.2523,57.9573 94.9189,53.2907 105.5,50.5C 111.142,49.6464 116.809,48.9797 122.5,48.5 Z"/></g>
<g><path style="opacity:1" fill="#724321" d="M 208.5,62.5 C 207.883,62.3893 207.383,62.056 207,61.5C 206.505,63.4727 206.338,65.4727 206.5,67.5C 205.833,65.5 205.167,63.5 204.5,61.5C 202.337,60.7618 200.17,59.7618 198,58.5C 197.235,58.5699 196.735,58.9033 196.5,59.5C 192.062,58.4251 190.062,60.0917 190.5,64.5C 190.5,65.8333 190.5,67.1667 190.5,68.5C 192.167,68.5 193.833,68.5 195.5,68.5C 195.131,66.0065 195.797,65.3398 197.5,66.5C 198.167,66.5 198.5,66.8333 198.5,67.5C 196.824,68.1834 196.157,69.5168 196.5,71.5C 194.666,70.506 192.999,70.506 191.5,71.5C 189.833,71.5 188.167,71.5 186.5,71.5C 186.5,71.1667 186.5,70.8333 186.5,70.5C 183.231,69.774 179.231,69.1073 174.5,68.5C 175.127,67.5832 175.461,66.5832 175.5,65.5C 175.631,64.6236 175.298,63.9569 174.5,63.5C 172.971,64.7629 171.305,65.7629 169.5,66.5C 168.986,67.6246 168.653,68.7913 168.5,70C 169.044,70.7172 169.711,71.2172 170.5,71.5C 170.5,72.5 170.5,73.5 170.5,74.5C 171.5,75.1667 172.5,75.8333 173.5,76.5C 172.5,76.5 171.5,76.5 170.5,76.5C 170.5,77.5 170.5,78.5 170.5,79.5C 171.791,79.2627 172.791,79.596 173.5,80.5C 173.5,81.1667 173.167,81.5 172.5,81.5C 170.167,80.1667 167.833,80.1667 165.5,81.5C 165.167,81.5 164.833,81.5 164.5,81.5C 163.833,81.5 163.167,81.5 162.5,81.5C 163.694,80.7281 164.694,79.7281 165.5,78.5C 166.5,78.1667 167.167,77.5 167.5,76.5C 168.598,75.3991 168.765,74.0657 168,72.5C 166.595,71.2695 165.429,69.9361 164.5,68.5C 164.672,67.5084 164.338,66.8417 163.5,66.5C 162.599,64.2729 160.933,63.2729 158.5,63.5C 153.626,64.2355 148.793,64.2355 144,63.5C 142.334,64.3479 140.834,65.3479 139.5,66.5C 138.399,67.8484 137.399,69.3484 136.5,71C 135.552,71.4828 134.552,71.6495 133.5,71.5C 133.5,69.5 133.5,67.5 133.5,65.5C 133.833,65.5 134.167,65.5 134.5,65.5C 134.369,66.3764 134.702,67.0431 135.5,67.5C 136.931,65.0623 138.931,63.3956 141.5,62.5C 146.363,62.6185 151.197,62.2852 156,61.5C 160.594,62.6116 165.094,63.9449 169.5,65.5C 169.167,63.5 168.833,61.5 168.5,59.5C 170.643,57.7449 172.309,55.5782 173.5,53C 177.527,52.6689 181.527,53.0023 185.5,54C 186.866,55.5998 187.866,57.4332 188.5,59.5C 191.62,56.6363 195.287,55.4697 199.5,56C 201.285,57.1628 203.285,57.8295 205.5,58C 207.141,59.129 208.141,60.629 208.5,62.5 Z"/></g>
<g><path style="opacity:1" fill="#85a45c" d="M 179.5,56.5 C 180.568,57.4345 181.901,57.7678 183.5,57.5C 183.5,59.1667 183.5,60.8333 183.5,62.5C 185.179,62.2852 186.179,62.9519 186.5,64.5C 183.052,63.98 181.386,61.98 181.5,58.5C 179.669,57.9478 178.003,57.9478 176.5,58.5C 178.611,59.6046 179.945,61.2712 180.5,63.5C 177.655,61.4395 174.655,60.4395 171.5,60.5C 173.271,59.0124 174.604,57.179 175.5,55C 177.193,54.516 178.527,55.016 179.5,56.5 Z"/></g>
<g><path style="opacity:1" fill="#87ad64" d="M 196.5,59.5 C 198.176,60.1834 198.843,61.5168 198.5,63.5C 195.5,63.1667 194.167,64.5 194.5,67.5C 193.5,67.5 192.5,67.5 191.5,67.5C 191.737,66.209 191.404,65.209 190.5,64.5C 190.062,60.0917 192.062,58.4251 196.5,59.5 Z"/></g>
<g><path style="opacity:1" fill="#814125" d="M 168.5,59.5 C 168.833,61.5 169.167,63.5 169.5,65.5C 165.094,63.9449 160.594,62.6116 156,61.5C 151.197,62.2852 146.363,62.6185 141.5,62.5C 141.5,61.8333 141.833,61.5 142.5,61.5C 143.833,61.5 145.167,61.5 146.5,61.5C 149.206,61.4249 151.873,61.0916 154.5,60.5C 156.167,60.5 157.833,60.5 159.5,60.5C 161.802,61.8598 163.468,61.1932 164.5,58.5C 164.121,56.7869 163.121,55.7869 161.5,55.5C 159.5,54.1667 157.5,54.1667 155.5,55.5C 152.421,56.304 149.421,57.304 146.5,58.5C 145.005,58.9887 143.671,59.6554 142.5,60.5C 140.167,60.5 137.833,60.5 135.5,60.5C 132.826,61.4991 132.159,63.1658 133.5,65.5C 133.5,67.5 133.5,69.5 133.5,71.5C 131.015,74.2611 129.848,77.5944 130,81.5C 128.455,83.2291 128.955,84.5624 131.5,85.5C 131.158,86.3382 130.492,86.6716 129.5,86.5C 128.833,86.5 128.5,86.1667 128.5,85.5C 127.766,84.2921 127.433,82.9587 127.5,81.5C 128.341,79.6208 128.675,77.6208 128.5,75.5C 127.903,74.8614 127.07,74.528 126,74.5C 124.624,74.6842 123.791,75.3509 123.5,76.5C 122.167,76.5 121.5,75.8333 121.5,74.5C 123.999,73.6992 125.999,72.3658 127.5,70.5C 128.316,68.8564 129.65,67.6897 131.5,67C 130.529,65.5187 129.196,64.6854 127.5,64.5C 125.833,64.5 124.167,64.5 122.5,64.5C 117.755,64.5183 113.089,64.8517 108.5,65.5C 106.147,66.3403 104.147,67.6736 102.5,69.5C 101.167,71.5 101.167,73.5 102.5,75.5C 99.3023,76.7 95.969,76.7 92.5,75.5C 91.4324,74.5655 90.099,74.2322 88.5,74.5C 88.5,76.5 88.5,78.5 88.5,80.5C 86.0065,80.8693 85.3398,80.2027 86.5,78.5C 86.5674,77.0413 86.2341,75.7079 85.5,74.5C 85.5,73.8333 85.5,73.1667 85.5,72.5C 85.8333,72.5 86.1667,72.5 86.5,72.5C 90.4526,72.3813 94.4526,72.8813 98.5,74C 99.3547,71.5644 100.021,69.0644 100.5,66.5C 103.004,64.8557 105.671,63.3557 108.5,62C 116.173,62.7384 123.839,62.4051 131.5,61C 132.5,60 133.5,59 134.5,58C 142.674,56.3378 150.841,54.5045 159,52.5C 163.716,52.7143 166.883,55.0476 168.5,59.5 Z"/></g>
<g><path style="opacity:1" fill="#eabbb1" d="M 155.5,55.5 C 156.043,55.56 156.376,55.8933 156.5,56.5C 155.37,57.6223 154.703,58.9557 154.5,60.5C 151.873,61.0916 149.206,61.4249 146.5,61.5C 146.5,60.5 146.5,59.5 146.5,58.5C 149.421,57.304 152.421,56.304 155.5,55.5 Z"/></g>
<g><path style="opacity:1" fill="#d97b6a" d="M 146.5,58.5 C 146.5,59.5 146.5,60.5 146.5,61.5C 145.167,61.5 143.833,61.5 142.5,61.5C 142.5,61.1667 142.5,60.8333 142.5,60.5C 143.671,59.6554 145.005,58.9887 146.5,58.5 Z"/></g>
<g><path style="opacity:1" fill="#eb7e6d" d="M 155.5,55.5 C 157.5,54.1667 159.5,54.1667 161.5,55.5C 160.833,57.1667 160.167,58.8333 159.5,60.5C 157.833,60.5 156.167,60.5 154.5,60.5C 154.703,58.9557 155.37,57.6223 156.5,56.5C 156.376,55.8933 156.043,55.56 155.5,55.5 Z"/></g>
<g><path style="opacity:1" fill="#f2c8c0" d="M 161.5,55.5 C 163.121,55.7869 164.121,56.7869 164.5,58.5C 163.468,61.1932 161.802,61.8598 159.5,60.5C 160.167,58.8333 160.833,57.1667 161.5,55.5 Z"/></g>
<g><path style="opacity:1" fill="#77b15a" d="M 186.5,64.5 C 185.448,66.256 183.781,66.9227 181.5,66.5C 181.737,65.209 181.404,64.209 180.5,63.5C 179.945,61.2712 178.611,59.6046 176.5,58.5C 178.003,57.9478 179.669,57.9478 181.5,58.5C 181.386,61.98 183.052,63.98 186.5,64.5 Z"/></g>
<g><path style="opacity:1" fill="#7eb35d" d="M 204.5,61.5 C 204.923,63.7812 204.256,65.4479 202.5,66.5C 202.5,65.5 202.5,64.5 202.5,63.5C 201.325,63.719 200.325,63.3857 199.5,62.5C 201.045,61.5481 202.712,61.2148 204.5,61.5 Z"/></g>
<g><path style="opacity:1" fill="#794839" d="M 277.5,64.5 C 270.869,63.669 264.202,63.3357 257.5,63.5C 260.186,62.0092 263.186,61.3425 266.5,61.5C 270.653,61.1327 274.32,62.1327 277.5,64.5 Z"/></g>
<g><path style="opacity:1" fill="#de786c" d="M 135.5,60.5 C 135.634,62.2915 135.301,63.9582 134.5,65.5C 134.167,65.5 133.833,65.5 133.5,65.5C 132.159,63.1658 132.826,61.4991 135.5,60.5 Z"/></g>
<g><path style="opacity:1" fill="#efc4b9" d="M 135.5,60.5 C 137.833,60.5 140.167,60.5 142.5,60.5C 142.5,60.8333 142.5,61.1667 142.5,61.5C 141.833,61.5 141.5,61.8333 141.5,62.5C 138.931,63.3956 136.931,65.0623 135.5,67.5C 134.702,67.0431 134.369,66.3764 134.5,65.5C 135.301,63.9582 135.634,62.2915 135.5,60.5 Z"/></g>
<g><path style="opacity:1" fill="#859458" d="M 196.5,59.5 C 196.735,58.9033 197.235,58.5699 198,58.5C 200.17,59.7618 202.337,60.7618 204.5,61.5C 202.712,61.2148 201.045,61.5481 199.5,62.5C 200.325,63.3857 201.325,63.719 202.5,63.5C 202.5,64.5 202.5,65.5 202.5,66.5C 201.778,66.0825 201.278,65.4158 201,64.5C 200.601,64.7284 200.435,65.0618 200.5,65.5C 198.804,63.871 197.804,64.2043 197.5,66.5C 195.797,65.3398 195.131,66.0065 195.5,68.5C 193.833,68.5 192.167,68.5 190.5,68.5C 190.5,67.1667 190.5,65.8333 190.5,64.5C 191.404,65.209 191.737,66.209 191.5,67.5C 192.5,67.5 193.5,67.5 194.5,67.5C 194.167,64.5 195.5,63.1667 198.5,63.5C 198.843,61.5168 198.176,60.1834 196.5,59.5 Z"/></g>
<g><path style="opacity:1" fill="#e7dcb4" d="M 175.5,65.5 C 173.638,67.4748 171.638,67.8081 169.5,66.5C 171.305,65.7629 172.971,64.7629 174.5,63.5C 175.298,63.9569 175.631,64.6236 175.5,65.5 Z"/></g>
<g><path style="opacity:1" fill="#dc795a" d="M 127.5,64.5 C 129.196,64.6854 130.529,65.5187 131.5,67C 129.65,67.6897 128.316,68.8564 127.5,70.5C 127.5,68.5 127.5,66.5 127.5,64.5 Z"/></g>
<g><path style="opacity:1" fill="#bcc16f" d="M 158.5,63.5 C 157.167,65.1667 155.833,66.8333 154.5,68.5C 151.917,67.0623 149.583,67.3956 147.5,69.5C 147.5,68.1667 147.5,66.8333 147.5,65.5C 146.5,65.5 145.5,65.5 144.5,65.5C 144.565,65.0618 144.399,64.7284 144,64.5C 143.061,67.0151 141.561,67.6817 139.5,66.5C 140.834,65.3479 142.334,64.3479 144,63.5C 148.793,64.2355 153.626,64.2355 158.5,63.5 Z"/></g>
<g><path style="opacity:1" fill="#868e54" d="M 179.5,56.5 C 181.167,56.5 182.833,56.5 184.5,56.5C 184.5,58.1667 184.5,59.8333 184.5,61.5C 185.5,61.5 186.5,61.5 187.5,61.5C 188.138,63.46 188.138,65.2933 187.5,67C 184.5,67.6667 181.5,67.6667 178.5,67C 179.973,66.2904 180.64,65.1238 180.5,63.5C 181.404,64.209 181.737,65.209 181.5,66.5C 183.781,66.9227 185.448,66.256 186.5,64.5C 186.179,62.9519 185.179,62.2852 183.5,62.5C 183.5,60.8333 183.5,59.1667 183.5,57.5C 181.901,57.7678 180.568,57.4345 179.5,56.5 Z"/></g>
<g><path style="opacity:1" fill="#f4e4dc" d="M 215.5,66.5 C 215.629,68.2161 215.962,69.8828 216.5,71.5C 214.716,71.1075 213.05,70.4408 211.5,69.5C 210.962,67.8828 210.629,66.2161 210.5,64.5C 212.51,63.6509 214.177,64.3176 215.5,66.5 Z"/></g>
<g><path style="opacity:1" fill="#764122" d="M 153.5,44.5 C 174.774,43.2706 196.107,44.2706 217.5,47.5C 231.896,50.2961 245.23,55.6294 257.5,63.5C 264.202,63.3357 270.869,63.669 277.5,64.5C 284.382,68.3892 286.216,74.0559 283,81.5C 281.542,83.96 279.709,86.1266 277.5,88C 272.833,89.5 268.167,91 263.5,92.5C 262.475,97.9343 261.141,103.268 259.5,108.5C 257.322,111.037 255.322,113.703 253.5,116.5C 253.833,115.167 254.167,113.833 254.5,112.5C 257.261,106.788 258.761,100.788 259,94.5C 256.618,96.3887 254.118,98.0553 251.5,99.5C 254.07,96.263 257.07,93.263 260.5,90.5C 261.429,89.3112 261.762,87.9778 261.5,86.5C 263.09,81.6413 262.59,76.9746 260,72.5C 256.466,68.6311 252.633,65.1311 248.5,62C 233.12,53.9054 216.786,49.0721 199.5,47.5C 184.407,45.1176 169.074,44.1176 153.5,44.5 Z"/></g>
<g><path style="opacity:1" fill="#e9b76a" d="M 58.5,69.5 C 59.2899,68.2058 60.2899,67.0391 61.5,66C 60.2068,65.51 58.8734,65.3433 57.5,65.5C 63.2017,62.7456 68.8684,63.0789 74.5,66.5C 74.2907,67.086 73.9574,67.586 73.5,68C 70.1667,68.3333 66.8333,68.6667 63.5,69C 62.0692,69.4652 60.9025,70.2986 60,71.5C 59.7216,70.5842 59.2216,69.9175 58.5,69.5 Z"/></g>
<g><path style="opacity:1" fill="#e3ad9c" d="M 108.5,65.5 C 109.376,65.3691 110.043,65.7025 110.5,66.5C 108.228,67.1342 106.561,68.4676 105.5,70.5C 104.609,69.8902 103.609,69.5569 102.5,69.5C 104.147,67.6736 106.147,66.3403 108.5,65.5 Z"/></g>
<g><path style="opacity:1" fill="#e3e7af" d="M 158.5,63.5 C 160.933,63.2729 162.599,64.2729 163.5,66.5C 160.655,67.3438 157.655,68.0104 154.5,68.5C 155.833,66.8333 157.167,65.1667 158.5,63.5 Z"/></g>
<g><path style="opacity:1" fill="#869656" d="M 204.5,61.5 C 205.167,63.5 205.833,65.5 206.5,67.5C 204.949,69.9816 203.616,69.6483 202.5,66.5C 204.256,65.4479 204.923,63.7812 204.5,61.5 Z"/></g>
<g><path style="opacity:1" fill="#e17c62" d="M 108.5,65.5 C 113.089,64.8517 117.755,64.5183 122.5,64.5C 122.5,65.1667 122.5,65.8333 122.5,66.5C 119.215,66.2693 116.715,67.6026 115,70.5C 113.192,68.6041 111.025,68.1041 108.5,69C 107.62,70.3561 107.286,71.8561 107.5,73.5C 106.599,72.7095 105.932,71.7095 105.5,70.5C 106.561,68.4676 108.228,67.1342 110.5,66.5C 110.043,65.7025 109.376,65.3691 108.5,65.5 Z"/></g>
<g><path style="opacity:1" fill="#bacb6b" d="M 144.5,65.5 C 145.5,65.5 146.5,65.5 147.5,65.5C 147.5,66.8333 147.5,68.1667 147.5,69.5C 147.5,70.8333 147.5,72.1667 147.5,73.5C 146.833,74.5 146.167,75.5 145.5,76.5C 144.167,77.1667 142.833,77.8333 141.5,78.5C 140.962,73.7646 141.962,69.4313 144.5,65.5 Z"/></g>
<g><path style="opacity:1" fill="#d1bf99" d="M 200.5,65.5 C 200.657,66.8734 200.49,68.2068 200,69.5C 199.283,68.9558 198.783,68.2891 198.5,67.5C 198.5,66.8333 198.167,66.5 197.5,66.5C 197.804,64.2043 198.804,63.871 200.5,65.5 Z"/></g>
<g><path style="opacity:1" fill="#d57c64" d="M 210.5,64.5 C 210.629,66.2161 210.962,67.8828 211.5,69.5C 210.5,69.5 209.5,69.5 208.5,69.5C 208.12,67.302 208.787,65.6354 210.5,64.5 Z"/></g>
<g><path style="opacity:1" fill="#e58068" d="M 215.5,66.5 C 216.959,66.4326 218.292,66.7659 219.5,67.5C 219.833,69.5 220.167,71.5 220.5,73.5C 219.167,72.8333 217.833,72.1667 216.5,71.5C 215.962,69.8828 215.629,68.2161 215.5,66.5 Z"/></g>
<g><path style="opacity:1" fill="#efbd69" d="M 270.5,65.5 C 268.801,65.3398 267.134,65.5065 265.5,66C 268.684,66.7542 271.351,68.2542 273.5,70.5C 272.417,70.5394 271.417,70.8728 270.5,71.5C 266.809,70.4735 263.309,69.1402 260,67.5C 259.383,66.5509 259.549,65.7175 260.5,65C 264.027,64.1925 267.36,64.3592 270.5,65.5 Z"/></g>
<g><path style="opacity:1" fill="#e2eca9" d="M 144.5,65.5 C 141.962,69.4313 140.962,73.7646 141.5,78.5C 141.167,78.5 140.833,78.5 140.5,78.5C 139.517,74.7016 139.183,70.7016 139.5,66.5C 141.561,67.6817 143.061,67.0151 144,64.5C 144.399,64.7284 144.565,65.0618 144.5,65.5 Z"/></g>
<g><path style="opacity:1" fill="#8d5d3f" d="M 175.5,65.5 C 175.461,66.5832 175.127,67.5832 174.5,68.5C 179.231,69.1073 183.231,69.774 186.5,70.5C 180.974,70.1786 175.64,70.5119 170.5,71.5C 169.711,71.2172 169.044,70.7172 168.5,70C 168.653,68.7913 168.986,67.6246 169.5,66.5C 171.638,67.8081 173.638,67.4748 175.5,65.5 Z"/></g>
<g><path style="opacity:1" fill="#d46836" d="M 229.5,66.5 C 233.119,67.1805 236.786,67.6805 240.5,68C 242.491,68.3736 244.158,69.207 245.5,70.5C 240.477,70.0733 235.477,69.4066 230.5,68.5C 230.137,67.8165 229.804,67.1499 229.5,66.5 Z"/></g>
<g><path style="opacity:1" fill="#bbcc6c" d="M 163.5,66.5 C 164.338,66.8417 164.672,67.5084 164.5,68.5C 164.5,69.5 164.5,70.5 164.5,71.5C 161.941,71.1984 159.607,71.5318 157.5,72.5C 155.799,71.7886 154.799,70.4553 154.5,68.5C 157.655,68.0104 160.655,67.3438 163.5,66.5 Z"/></g>
<g><path style="opacity:1" fill="#f0c1a4" d="M 186.5,70.5 C 186.5,70.8333 186.5,71.1667 186.5,71.5C 185.833,71.8333 185.167,72.1667 184.5,72.5C 181.375,71.5206 178.042,71.1872 174.5,71.5C 174.5,72.5 174.5,73.5 174.5,74.5C 173.167,74.5 171.833,74.5 170.5,74.5C 170.5,73.5 170.5,72.5 170.5,71.5C 175.64,70.5119 180.974,70.1786 186.5,70.5 Z"/></g>
<g><path style="opacity:1" fill="#e27f67" d="M 225.5,68.5 C 228.726,69.8767 229.059,71.5434 226.5,73.5C 225.962,71.8828 225.629,70.2161 225.5,68.5 Z"/></g>
<g><path style="opacity:1" fill="#89391d" d="M 226.5,66.5 C 227.5,66.5 228.5,66.5 229.5,66.5C 229.804,67.1499 230.137,67.8165 230.5,68.5C 235.477,69.4066 240.477,70.0733 245.5,70.5C 245.833,70.5 246.167,70.5 246.5,70.5C 246.5,70.8333 246.5,71.1667 246.5,71.5C 239.374,70.7828 232.708,71.7828 226.5,74.5C 226.5,74.1667 226.5,73.8333 226.5,73.5C 229.059,71.5434 228.726,69.8767 225.5,68.5C 225.328,67.5084 225.662,66.8417 226.5,66.5 Z"/></g>
<g><path style="opacity:1" fill="#f1d5ca" d="M 122.5,64.5 C 124.167,64.5 125.833,64.5 127.5,64.5C 127.5,66.5 127.5,68.5 127.5,70.5C 125.999,72.3658 123.999,73.6992 121.5,74.5C 122.379,72.772 123.046,70.9386 123.5,69C 123.472,67.9302 123.139,67.0968 122.5,66.5C 122.5,65.8333 122.5,65.1667 122.5,64.5 Z"/></g>
<g><path style="opacity:1" fill="#b4ae69" d="M 164.5,68.5 C 165.429,69.9361 166.595,71.2695 168,72.5C 168.765,74.0657 168.598,75.3991 167.5,76.5C 166.463,71.499 165.13,71.499 163.5,76.5C 163.241,72.9319 161.241,71.5985 157.5,72.5C 159.607,71.5318 161.941,71.1984 164.5,71.5C 164.5,70.5 164.5,69.5 164.5,68.5 Z"/></g>
<g><path style="opacity:1" fill="#e0b69e" d="M 196.5,71.5 C 197.6,72.5585 198.934,73.3918 200.5,74C 199.473,74.5133 198.473,75.0133 197.5,75.5C 196.7,73.2591 195.034,72.2591 192.5,72.5C 192.737,73.791 192.404,74.791 191.5,75.5C 191.5,74.1667 191.5,72.8333 191.5,71.5C 192.999,70.506 194.666,70.506 196.5,71.5 Z"/></g>
<g><path style="opacity:1" fill="#d85c34" d="M 100.5,66.5 C 100.021,69.0644 99.3547,71.5644 98.5,74C 94.4526,72.8813 90.4526,72.3813 86.5,72.5C 90.1651,68.3824 94.8318,66.3824 100.5,66.5 Z"/></g>
<g><path style="opacity:1" fill="#6e4922" d="M 154.5,68.5 C 154.799,70.4553 155.799,71.7886 157.5,72.5C 161.241,71.5985 163.241,72.9319 163.5,76.5C 163.167,77.1667 162.833,77.8333 162.5,78.5C 159.421,78.7399 156.421,78.4066 153.5,77.5C 152.614,78.325 152.281,79.325 152.5,80.5C 151.833,80.5 151.167,80.5 150.5,80.5C 151.021,77.3637 150.021,75.0304 147.5,73.5C 147.5,72.1667 147.5,70.8333 147.5,69.5C 149.583,67.3956 151.917,67.0623 154.5,68.5 Z"/></g>
<g><path style="opacity:1" fill="#bbcf96" d="M 150.5,69.5 C 153.244,70.0717 154.077,71.7383 153,74.5C 151.117,73.3474 150.284,71.6807 150.5,69.5 Z"/></g>
<g><path style="opacity:1" fill="#f4ece6" d="M 219.5,67.5 C 221.621,67.3253 223.621,67.6586 225.5,68.5C 225.629,70.2161 225.962,71.8828 226.5,73.5C 226.5,73.8333 226.5,74.1667 226.5,74.5C 226.092,75.6431 225.425,76.6431 224.5,77.5C 222.784,76.4513 221.451,75.118 220.5,73.5C 220.167,71.5 219.833,69.5 219.5,67.5 Z"/></g>
<g><path style="opacity:1" fill="#f7dc84" d="M 270.5,65.5 C 281.942,68.2183 284.276,74.385 277.5,84C 273.813,86.285 269.813,87.4517 265.5,87.5C 265.201,85.396 265.534,83.396 266.5,81.5C 273.185,80.4466 275.518,76.7799 273.5,70.5C 271.351,68.2542 268.684,66.7542 265.5,66C 267.134,65.5065 268.801,65.3398 270.5,65.5 Z"/></g>
<g><path style="opacity:1" fill="#f5db85" d="M 57.5,65.5 C 58.8734,65.3433 60.2068,65.51 61.5,66C 60.2899,67.0391 59.2899,68.2058 58.5,69.5C 57.3709,71.6282 57.2042,73.9615 58,76.5C 58.8159,77.8228 59.9826,78.4894 61.5,78.5C 62.5137,79.6737 63.847,80.3404 65.5,80.5C 65.5,82.1667 65.5,83.8333 65.5,85.5C 64.1667,85.5 62.8333,85.5 61.5,85.5C 58.2814,85.2241 55.6148,83.8907 53.5,81.5C 48.65,74.5921 49.9833,69.2588 57.5,65.5 Z"/></g>
<g><path style="opacity:1" fill="#f3e4d5" d="M 184.5,72.5 C 181.683,75.064 178.35,75.7307 174.5,74.5C 174.5,73.5 174.5,72.5 174.5,71.5C 178.042,71.1872 181.375,71.5206 184.5,72.5 Z"/></g>
<g><path style="opacity:1" fill="#ebcec3" d="M 102.5,69.5 C 103.609,69.5569 104.609,69.8902 105.5,70.5C 105.932,71.7095 106.599,72.7095 107.5,73.5C 108.167,74.8333 109.167,75.8333 110.5,76.5C 110.5,77.1667 110.167,77.5 109.5,77.5C 107.254,76.5448 104.921,75.8782 102.5,75.5C 101.167,73.5 101.167,71.5 102.5,69.5 Z"/></g>
<g><path style="opacity:1" fill="#f3e2d9" d="M 197.5,75.5 C 196.391,75.5569 195.391,75.8902 194.5,76.5C 193.209,76.7373 192.209,76.404 191.5,75.5C 192.404,74.791 192.737,73.791 192.5,72.5C 195.034,72.2591 196.7,73.2591 197.5,75.5 Z"/></g>
<g><path style="opacity:1" fill="#f3ede7" d="M 263.5,73.5 C 266.204,72.4861 268.537,73.3195 270.5,76C 269.347,77.883 267.681,78.7163 265.5,78.5C 265.598,76.4471 264.931,74.7804 263.5,73.5 Z"/></g>
<g><path style="opacity:1" fill="#ece0da" d="M 66.5,70.5 C 67.8734,70.3433 69.2068,70.51 70.5,71C 68.7811,72.8705 67.7811,75.0372 67.5,77.5C 64.7743,77.7361 62.441,76.9028 60.5,75C 62.3893,73.2359 64.3893,71.7359 66.5,70.5 Z"/></g>
<g><path style="opacity:1" fill="#d77563" d="M 128.5,75.5 C 126.958,76.3007 125.292,76.634 123.5,76.5C 123.791,75.3509 124.624,74.6842 126,74.5C 127.07,74.528 127.903,74.8614 128.5,75.5 Z"/></g>
<g><path style="opacity:1" fill="#bbc893" d="M 156.5,74.5 C 158.288,74.2148 159.955,74.5481 161.5,75.5C 159.579,76.641 157.579,76.8077 155.5,76C 156.056,75.6174 156.389,75.1174 156.5,74.5 Z"/></g>
<g><path style="opacity:1" fill="#bec774" d="M 139.5,66.5 C 139.183,70.7016 139.517,74.7016 140.5,78.5C 137.651,81.0837 134.651,83.417 131.5,85.5C 128.955,84.5624 128.455,83.2291 130,81.5C 129.848,77.5944 131.015,74.2611 133.5,71.5C 134.552,71.6495 135.552,71.4828 136.5,71C 137.399,69.3484 138.399,67.8484 139.5,66.5 Z"/></g>
<g><path style="opacity:1" fill="#dfe1a5" d="M 167.5,76.5 C 167.167,77.5 166.5,78.1667 165.5,78.5C 164.5,78.5 163.5,78.5 162.5,78.5C 162.833,77.8333 163.167,77.1667 163.5,76.5C 165.13,71.499 166.463,71.499 167.5,76.5 Z"/></g>
<g><path style="opacity:1" fill="#e5beae" d="M 121.5,74.5 C 121.5,75.8333 122.167,76.5 123.5,76.5C 125.292,76.634 126.958,76.3007 128.5,75.5C 128.675,77.6208 128.341,79.6208 127.5,81.5C 126.325,81.719 125.325,81.3857 124.5,80.5C 125.5,79.6667 126.5,78.8333 127.5,78C 127,77.8333 126.5,77.6667 126,77.5C 123.953,78.6094 121.787,79.2761 119.5,79.5C 119.12,77.302 119.787,75.6354 121.5,74.5 Z"/></g>
<g><path style="opacity:1" fill="#dfb89c" d="M 173.5,76.5 C 174.791,76.2627 175.791,76.596 176.5,77.5C 175.448,77.3505 174.448,77.5172 173.5,78C 174.252,78.6708 174.586,79.5041 174.5,80.5C 174.167,80.5 173.833,80.5 173.5,80.5C 172.791,79.596 171.791,79.2627 170.5,79.5C 170.5,78.5 170.5,77.5 170.5,76.5C 171.5,76.5 172.5,76.5 173.5,76.5 Z"/></g>
<g><path style="opacity:1" fill="#bdae71" d="M 147.5,73.5 C 150.021,75.0304 151.021,77.3637 150.5,80.5C 145.569,82.0027 145.236,81.1694 149.5,78C 148.906,77.5357 148.239,77.369 147.5,77.5C 147.158,76.6618 146.492,76.3284 145.5,76.5C 146.167,75.5 146.833,74.5 147.5,73.5 Z"/></g>
<g><path style="opacity:1" fill="#b8b26a" d="M 162.5,78.5 C 163.5,78.5 164.5,78.5 165.5,78.5C 164.694,79.7281 163.694,80.7281 162.5,81.5C 159.193,80.9492 155.86,80.6159 152.5,80.5C 152.281,79.325 152.614,78.325 153.5,77.5C 156.421,78.4066 159.421,78.7399 162.5,78.5 Z"/></g>
<g><path style="opacity:1" fill="#f0dfd6" d="M 196.5,78.5 C 199.602,78.154 202.435,78.8207 205,80.5C 205.692,81.4368 205.525,82.1034 204.5,82.5C 199.882,81.7812 195.215,81.2812 190.5,81C 190.043,80.586 189.709,80.086 189.5,79.5C 191.743,78.5258 194.076,78.1924 196.5,78.5 Z"/></g>
<g><path style="opacity:1" fill="#e9d8cf" d="M 147.5,77.5 C 143.352,81.4041 139.019,85.0708 134.5,88.5C 133.957,88.44 133.624,88.1067 133.5,87.5C 137.345,82.9847 142.011,79.6513 147.5,77.5 Z"/></g>
<g><path style="opacity:1" fill="#ecc3a3" d="M 196.5,78.5 C 196.5,78.1667 196.5,77.8333 196.5,77.5C 201.765,76.5706 206.265,77.9039 210,81.5C 210.667,82.8333 210.667,84.1667 210,85.5C 208.416,84.1387 206.582,83.472 204.5,83.5C 204.5,83.1667 204.5,82.8333 204.5,82.5C 205.525,82.1034 205.692,81.4368 205,80.5C 202.435,78.8207 199.602,78.154 196.5,78.5 Z"/></g>
<g><path style="opacity:1" fill="#713d26" d="M 147.5,77.5 C 148.239,77.369 148.906,77.5357 149.5,78C 145.236,81.1694 145.569,82.0027 150.5,80.5C 151.167,80.5 151.833,80.5 152.5,80.5C 155.86,80.6159 159.193,80.9492 162.5,81.5C 163.167,81.5 163.833,81.5 164.5,81.5C 163.448,83.256 161.781,83.9227 159.5,83.5C 155.486,83.3345 151.486,83.5012 147.5,84C 146.263,84.2321 145.263,84.7321 144.5,85.5C 140.458,86.8514 137.125,89.1848 134.5,92.5C 133.503,92.5299 132.836,92.0299 132.5,91C 133.056,89.9889 133.722,89.1556 134.5,88.5C 139.019,85.0708 143.352,81.4041 147.5,77.5 Z"/></g>
<g><path style="opacity:1" fill="#deccc3" d="M 159.5,83.5 C 159.5,83.8333 159.5,84.1667 159.5,84.5C 154.463,84.4126 149.463,84.746 144.5,85.5C 145.263,84.7321 146.263,84.2321 147.5,84C 151.486,83.5012 155.486,83.3345 159.5,83.5 Z"/></g>
<g><path style="opacity:1" fill="#eed7ce" d="M 176.5,77.5 C 176.297,79.3904 176.963,80.8904 178.5,82C 190.676,80.6573 191.176,81.8239 180,85.5C 177.801,84.1648 175.968,82.4981 174.5,80.5C 174.586,79.5041 174.252,78.6708 173.5,78C 174.448,77.5172 175.448,77.3505 176.5,77.5 Z"/></g>
<g><path style="opacity:1" fill="#f9f7f5" d="M 159.5,84.5 C 171.627,87.7486 175.627,95.4152 171.5,107.5C 169.315,109.762 166.648,111.262 163.5,112C 154.814,112.832 146.147,112.665 137.5,111.5C 136.479,109.812 135.145,108.479 133.5,107.5C 131.918,102.328 132.252,97.3284 134.5,92.5C 137.125,89.1848 140.458,86.8514 144.5,85.5C 149.463,84.746 154.463,84.4126 159.5,84.5 Z"/></g>
<g><path style="opacity:1" fill="#be975c" d="M 65.5,80.5 C 66.4614,82.2646 66.7947,84.2646 66.5,86.5C 64.5853,86.7845 62.9187,86.4511 61.5,85.5C 62.8333,85.5 64.1667,85.5 65.5,85.5C 65.5,83.8333 65.5,82.1667 65.5,80.5 Z"/></g>
<g><path style="opacity:1" fill="#ecbf9f" d="M 172.5,81.5 C 172.5,81.8333 172.5,82.1667 172.5,82.5C 171.957,82.56 171.624,82.8933 171.5,83.5C 173.086,85.1727 173.753,87.1727 173.5,89.5C 170.452,87.1185 167.785,84.4518 165.5,81.5C 167.833,80.1667 170.167,80.1667 172.5,81.5 Z"/></g>
<g><path style="opacity:1" fill="#754633" d="M 186.5,71.5 C 188.167,71.5 189.833,71.5 191.5,71.5C 191.5,72.8333 191.5,74.1667 191.5,75.5C 192.209,76.404 193.209,76.7373 194.5,76.5C 194.842,77.3382 195.508,77.6716 196.5,77.5C 196.5,77.8333 196.5,78.1667 196.5,78.5C 194.076,78.1924 191.743,78.5258 189.5,79.5C 189.709,80.086 190.043,80.586 190.5,81C 195.215,81.2812 199.882,81.7812 204.5,82.5C 204.5,82.8333 204.5,83.1667 204.5,83.5C 204.833,84.1667 205.167,84.8333 205.5,85.5C 199.862,84.5409 194.195,84.3742 188.5,85C 177.532,88.7759 173.199,96.2759 175.5,107.5C 174.167,107.5 172.833,107.5 171.5,107.5C 175.627,95.4152 171.627,87.7486 159.5,84.5C 159.5,84.1667 159.5,83.8333 159.5,83.5C 161.781,83.9227 163.448,83.256 164.5,81.5C 164.833,81.5 165.167,81.5 165.5,81.5C 167.785,84.4518 170.452,87.1185 173.5,89.5C 173.369,90.3764 173.702,91.0431 174.5,91.5C 178.484,87.732 177.817,84.732 172.5,82.5C 172.5,82.1667 172.5,81.8333 172.5,81.5C 173.167,81.5 173.5,81.1667 173.5,80.5C 173.833,80.5 174.167,80.5 174.5,80.5C 175.968,82.4981 177.801,84.1648 180,85.5C 191.176,81.8239 190.676,80.6573 178.5,82C 176.963,80.8904 176.297,79.3904 176.5,77.5C 175.791,76.596 174.791,76.2627 173.5,76.5C 172.5,75.8333 171.5,75.1667 170.5,74.5C 171.833,74.5 173.167,74.5 174.5,74.5C 178.35,75.7307 181.683,75.064 184.5,72.5C 185.167,72.1667 185.833,71.8333 186.5,71.5 Z"/></g>
<g><path style="opacity:1" fill="#f3e0d4" d="M 172.5,82.5 C 177.817,84.732 178.484,87.732 174.5,91.5C 173.702,91.0431 173.369,90.3764 173.5,89.5C 173.753,87.1727 173.086,85.1727 171.5,83.5C 171.624,82.8933 171.957,82.56 172.5,82.5 Z"/></g>
<g><path style="opacity:1" fill="#b6c68f" d="M 179.5,77.5 C 181.288,77.2148 182.955,77.5481 184.5,78.5C 183.332,80.2174 181.665,80.8841 179.5,80.5C 179.5,79.5 179.5,78.5 179.5,77.5 Z"/></g>
<g><path style="opacity:1" fill="#bbc890" d="M 187.5,72.5 C 190.063,73.9979 190.063,75.6646 187.5,77.5C 186.334,75.8327 186.334,74.166 187.5,72.5 Z"/></g>
<g><path style="opacity:1" fill="#f9f7f5" d="M 205.5,85.5 C 207.167,86.8333 208.833,88.1667 210.5,89.5C 211.804,92.8121 210.471,94.4787 206.5,94.5C 205.91,93.234 205.41,91.9007 205,90.5C 202.523,91.8754 201.689,93.7088 202.5,96C 203.448,96.4828 204.448,96.6495 205.5,96.5C 207.102,100.14 209.435,100.473 212.5,97.5C 212.833,98.3333 213.167,99.1667 213.5,100C 212.14,102.27 211.473,104.77 211.5,107.5C 211.389,108.117 211.056,108.617 210.5,109C 201.523,110.402 192.523,111.568 183.5,112.5C 180.308,111.634 177.641,109.968 175.5,107.5C 173.199,96.2759 177.532,88.7759 188.5,85C 194.195,84.3742 199.862,84.5409 205.5,85.5 Z"/></g>
<g><path style="opacity:1" fill="#75412c" d="M 122.5,66.5 C 123.139,67.0968 123.472,67.9302 123.5,69C 123.046,70.9386 122.379,72.772 121.5,74.5C 119.787,75.6354 119.12,77.302 119.5,79.5C 121.787,79.2761 123.953,78.6094 126,77.5C 126.5,77.6667 127,77.8333 127.5,78C 126.5,78.8333 125.5,79.6667 124.5,80.5C 125.325,81.3857 126.325,81.719 127.5,81.5C 127.433,82.9587 127.766,84.2921 128.5,85.5C 121.449,82.6608 114.115,81.8275 106.5,83C 105.058,83.3768 104.058,84.2101 103.5,85.5C 99.512,87.1124 97.1786,90.1124 96.5,94.5C 95.8999,98.5164 96.8999,102.016 99.5,105C 103.709,105.881 107.709,107.047 111.5,108.5C 106.399,108.284 101.399,107.45 96.5,106C 96.0019,104.842 95.1685,104.009 94,103.5C 90.3382,102.976 86.8382,101.976 83.5,100.5C 84.6119,99.7348 85.2786,98.7348 85.5,97.5C 86.4778,97.189 87.1445,96.5223 87.5,95.5C 85.8068,94.7717 84.3068,93.7717 83,92.5C 82.5172,93.448 82.3505,94.448 82.5,95.5C 80.901,95.7678 79.5676,95.4345 78.5,94.5C 79.7103,92.8236 79.2103,91.4903 77,90.5C 76.6012,90.7284 76.4346,91.0618 76.5,91.5C 75.9569,91.44 75.6236,91.1067 75.5,90.5C 78.144,89.259 78.9774,87.259 78,84.5C 76.6764,85.8802 75.3431,86.2135 74,85.5C 73.5034,83.1902 73.3367,80.8568 73.5,78.5C 76.2721,76.9371 78.9388,75.1038 81.5,73C 82.7932,72.51 84.1266,72.3433 85.5,72.5C 85.5,73.1667 85.5,73.8333 85.5,74.5C 81.6052,74.8573 80.6052,76.8573 82.5,80.5C 83.6223,79.3698 84.9557,78.7031 86.5,78.5C 85.3398,80.2027 86.0065,80.8693 88.5,80.5C 88.5,78.5 88.5,76.5 88.5,74.5C 90.099,74.2322 91.4324,74.5655 92.5,75.5C 95.969,76.7 99.3023,76.7 102.5,75.5C 104.921,75.8782 107.254,76.5448 109.5,77.5C 110.492,79.0265 111.992,79.6932 114,79.5C 115.167,79.1667 116.333,78.8333 117.5,78.5C 117.291,77.914 116.957,77.414 116.5,77C 114.527,76.5045 112.527,76.3379 110.5,76.5C 109.167,75.8333 108.167,74.8333 107.5,73.5C 107.286,71.8561 107.62,70.3561 108.5,69C 111.025,68.1041 113.192,68.6041 115,70.5C 116.715,67.6026 119.215,66.2693 122.5,66.5 Z"/></g>
<g><path style="opacity:1" fill="#dcc0a8" d="M 93.5,84.5 C 95.1992,84.3398 96.8659,84.5065 98.5,85C 96.4153,87.1391 94.7487,86.9725 93.5,84.5 Z"/></g>
<g><path style="opacity:1" fill="#f3e4ce" d="M 79.5,83.5 C 83.9195,84.0898 84.5862,86.0898 81.5,89.5C 79.7175,87.9775 79.0508,85.9775 79.5,83.5 Z"/></g>
<g><path style="opacity:1" fill="#ebdbc6" d="M 85.5,81.5 C 88.4598,81.6621 90.2931,82.9954 91,85.5C 87.4628,86.8183 85.6294,85.485 85.5,81.5 Z"/></g>
<g><path style="opacity:1" fill="#d6b8a3" d="M 96.5,80.5 C 98.604,80.2011 100.604,80.5344 102.5,81.5C 99.8938,82.6517 97.2272,82.8184 94.5,82C 95.4158,81.7216 96.0825,81.2216 96.5,80.5 Z"/></g>
<g><path style="opacity:1" fill="#dbc4af" d="M 76.5,78.5 C 79.1445,80.6601 78.8111,82.6601 75.5,84.5C 74.2302,82.2432 74.5636,80.2432 76.5,78.5 Z"/></g>
<g><path style="opacity:1" fill="#cf6a50" d="M 110.5,76.5 C 112.527,76.3379 114.527,76.5045 116.5,77C 116.957,77.414 117.291,77.914 117.5,78.5C 116.333,78.8333 115.167,79.1667 114,79.5C 111.992,79.6932 110.492,79.0265 109.5,77.5C 110.167,77.5 110.5,77.1667 110.5,76.5 Z"/></g>
<g><path style="opacity:1" fill="#e8d4bf" d="M 92.5,75.5 C 92.6107,76.1174 92.944,76.6174 93.5,77C 97.5,77.3333 101.5,77.6667 105.5,78C 107.271,78.5354 107.604,79.3687 106.5,80.5C 102.364,78.5526 98.0303,78.0526 93.5,79C 92.7801,81.1223 91.6134,81.6223 90,80.5C 89.5065,78.8659 89.3398,77.1992 89.5,75.5C 90.5,75.5 91.5,75.5 92.5,75.5 Z"/></g>
<g><path style="opacity:1" fill="#f0e2cd" d="M 85.5,74.5 C 86.2341,75.7079 86.5674,77.0413 86.5,78.5C 84.9557,78.7031 83.6223,79.3698 82.5,80.5C 80.6052,76.8573 81.6052,74.8573 85.5,74.5 Z"/></g>
<g><path style="opacity:1" fill="#aaae7b" d="M 109.5,70.5 C 112.278,70.0217 114.278,71.0217 115.5,73.5C 111.857,75.3948 109.857,74.3948 109.5,70.5 Z"/></g>
<g><path style="opacity:1" fill="#b4bc8a" d="M 118.5,68.5 C 119.5,68.5 120.5,68.5 121.5,68.5C 121.756,70.9124 120.756,72.5791 118.5,73.5C 117.334,71.8327 117.334,70.166 118.5,68.5 Z"/></g>
<g><path style="opacity:1" fill="#da613b" d="M 246.5,70.5 C 255.175,72.498 259.841,77.8313 260.5,86.5C 258.833,90.1667 256.167,92.8333 252.5,94.5C 252.611,93.8826 252.944,93.3826 253.5,93C 251.619,93.096 249.953,92.9293 248.5,92.5C 249.167,91.8333 249.833,91.1667 250.5,90.5C 252.752,90.0844 254.252,88.751 255,86.5C 256.137,79.1591 253.303,74.1591 246.5,71.5C 246.5,71.1667 246.5,70.8333 246.5,70.5 Z"/></g>
<g><path style="opacity:1" fill="#753e28" d="M 208.5,62.5 C 210.402,61.4891 212.402,61.3224 214.5,62C 217.898,63.9162 221.565,64.9162 225.5,65C 226.056,65.3826 226.389,65.8826 226.5,66.5C 225.662,66.8417 225.328,67.5084 225.5,68.5C 223.621,67.6586 221.621,67.3253 219.5,67.5C 218.292,66.7659 216.959,66.4326 215.5,66.5C 214.177,64.3176 212.51,63.6509 210.5,64.5C 208.787,65.6354 208.12,67.302 208.5,69.5C 209.5,69.5 210.5,69.5 211.5,69.5C 213.05,70.4408 214.716,71.1075 216.5,71.5C 217.833,72.1667 219.167,72.8333 220.5,73.5C 221.451,75.118 222.784,76.4513 224.5,77.5C 225.425,76.6431 226.092,75.6431 226.5,74.5C 232.708,71.7828 239.374,70.7828 246.5,71.5C 253.303,74.1591 256.137,79.1591 255,86.5C 254.252,88.751 252.752,90.0844 250.5,90.5C 247.833,90.8333 245.167,91.1667 242.5,91.5C 242.5,92.8333 242.5,94.1667 242.5,95.5C 243.306,96.9972 243.972,98.6639 244.5,100.5C 244.957,101.298 245.624,101.631 246.5,101.5C 242.055,104.057 237.389,106.057 232.5,107.5C 225.587,109.248 218.587,110.581 211.5,111.5C 187.26,114.172 162.926,115.172 138.5,114.5C 136.065,112.729 134.398,110.396 133.5,107.5C 135.145,108.479 136.479,109.812 137.5,111.5C 146.147,112.665 154.814,112.832 163.5,112C 166.648,111.262 169.315,109.762 171.5,107.5C 170.952,109.394 169.952,111.06 168.5,112.5C 171.086,113.48 173.753,113.813 176.5,113.5C 176.483,111.435 176.15,109.435 175.5,107.5C 177.641,109.968 180.308,111.634 183.5,112.5C 192.523,111.568 201.523,110.402 210.5,109C 211.056,108.617 211.389,108.117 211.5,107.5C 217.113,101.175 216.78,95.1753 210.5,89.5C 208.833,88.1667 207.167,86.8333 205.5,85.5C 205.167,84.8333 204.833,84.1667 204.5,83.5C 206.582,83.472 208.416,84.1387 210,85.5C 210.667,84.1667 210.667,82.8333 210,81.5C 206.265,77.9039 201.765,76.5706 196.5,77.5C 195.508,77.6716 194.842,77.3382 194.5,76.5C 195.391,75.8902 196.391,75.5569 197.5,75.5C 198.473,75.0133 199.473,74.5133 200.5,74C 198.934,73.3918 197.6,72.5585 196.5,71.5C 196.157,69.5168 196.824,68.1834 198.5,67.5C 198.783,68.2891 199.283,68.9558 200,69.5C 200.49,68.2068 200.657,66.8734 200.5,65.5C 200.435,65.0618 200.601,64.7284 201,64.5C 201.278,65.4158 201.778,66.0825 202.5,66.5C 203.616,69.6483 204.949,69.9816 206.5,67.5C 206.338,65.4727 206.505,63.4727 207,61.5C 207.383,62.056 207.883,62.3893 208.5,62.5 Z"/></g>
<g><path style="opacity:1" fill="#deb398" d="M 212.5,86.5 C 215.564,86.9811 216.398,88.3144 215,90.5C 213.519,89.5291 212.685,88.1958 212.5,86.5 Z"/></g>
<g><path style="opacity:1" fill="#835f51" d="M 228.5,82.5 C 229.65,83.8502 230.317,83.6836 230.5,82C 230.046,79.9701 229.38,78.1368 228.5,76.5C 229.343,74.8267 230.676,73.66 232.5,73C 236.905,72.3041 241.239,72.6374 245.5,74C 243.464,74.4536 241.63,75.2869 240,76.5C 237.95,75.2088 235.783,74.7088 233.5,75C 233.695,78.4358 233.362,81.9358 232.5,85.5C 235.066,85.6556 237.566,85.3223 240,84.5C 242.33,86.0426 244.83,86.5426 247.5,86C 248.876,83.4598 248.21,81.4598 245.5,80C 246.46,78.5806 247.293,77.0806 248,75.5C 253.167,79.6334 253.667,84.1334 249.5,89C 243.245,90.1268 237.245,89.4601 231.5,87C 229.859,85.871 228.859,84.371 228.5,82.5 Z"/></g>
<g><path style="opacity:1" fill="#e9bd9d" d="M 217.5,80.5 C 224.161,82.9589 224.495,85.2922 218.5,87.5C 217.452,86.452 216.452,85.452 215.5,84.5C 216.675,84.719 217.675,84.3857 218.5,83.5C 217.873,82.5832 217.539,81.5832 217.5,80.5 Z"/></g>
<g><path style="opacity:1" fill="#f1e0d2" d="M 217.5,80.5 C 217.539,81.5832 217.873,82.5832 218.5,83.5C 217.675,84.3857 216.675,84.719 215.5,84.5C 213.815,83.8163 212.815,82.483 212.5,80.5C 214.167,79.3336 215.834,79.3336 217.5,80.5 Z"/></g>
<g><path style="opacity:1" fill="#d2ac8c" d="M 243.5,76.5 C 244.043,76.56 244.376,76.8933 244.5,77.5C 241.623,79.9132 241.956,81.7465 245.5,83C 242.881,82.9167 240.214,82.75 237.5,82.5C 237.703,80.6096 237.037,79.1096 235.5,78C 237.179,77.6053 238.845,77.772 240.5,78.5C 242.038,78.5466 243.038,77.8799 243.5,76.5 Z"/></g>
<g><path style="opacity:1" fill="#d5c5be" d="M 228.5,76.5 C 229.38,78.1368 230.046,79.9701 230.5,82C 230.317,83.6836 229.65,83.8502 228.5,82.5C 228.5,80.5 228.5,78.5 228.5,76.5 Z"/></g>
<g><path style="opacity:1" fill="#f1e2dc" d="M 203.5,73.5 C 205.265,72.5386 207.265,72.2053 209.5,72.5C 213.817,73.1014 217.484,74.9347 220.5,78C 214.264,78.5165 208.597,77.0165 203.5,73.5 Z"/></g>
<g><path style="opacity:1" fill="#b49384" d="M 209.5,72.5 C 207.265,72.2053 205.265,72.5386 203.5,73.5C 202.711,73.2172 202.044,72.7172 201.5,72C 204.367,71.1993 207.034,71.3659 209.5,72.5 Z"/></g>
<g><path style="opacity:1" fill="#6e3f2e" d="M 104.5,88.5 C 105.167,88.5 105.5,88.8333 105.5,89.5C 105.5,90.5 105.5,91.5 105.5,92.5C 104.167,92.5 102.833,92.5 101.5,92.5C 101.088,90.0274 102.088,88.6941 104.5,88.5 Z"/></g>
<g><path style="opacity:1" fill="#e8d6c1" d="M 85.5,88.5 C 87.5,88.5 89.5,88.5 91.5,88.5C 91.5,89.8333 91.5,91.1667 91.5,92.5C 87.7593,93.4015 85.7593,92.0681 85.5,88.5 Z"/></g>
<g><path style="opacity:1" fill="#a67961" d="M 93.5,88.5 C 94.3764,88.3691 95.0431,88.7025 95.5,89.5C 94.6258,91.7466 94.2924,94.0799 94.5,96.5C 89.846,96.6046 89.346,95.2713 93,92.5C 93.49,91.2068 93.6567,89.8734 93.5,88.5 Z"/></g>
<g><path style="opacity:1" fill="#765042" d="M 107.5,89.5 C 108.447,91.4554 109.781,91.7887 111.5,90.5C 112.192,91.0253 112.692,91.6919 113,92.5C 113.249,91.376 113.749,90.376 114.5,89.5C 115.452,91.0453 115.785,92.712 115.5,94.5C 112.833,94.1667 110.167,93.8333 107.5,93.5C 106.167,92.1667 106.167,90.8333 107.5,89.5 Z"/></g>
<g><path style="opacity:1" fill="#7f594a" d="M 206.5,94.5 C 206.672,95.4916 206.338,96.1583 205.5,96.5C 204.448,96.6495 203.448,96.4828 202.5,96C 201.689,93.7088 202.523,91.8754 205,90.5C 205.41,91.9007 205.91,93.234 206.5,94.5 Z"/></g>
<g><path style="opacity:1" fill="#e4cbb3" d="M 78.5,94.5 C 77.0937,94.0269 76.427,93.0269 76.5,91.5C 76.4346,91.0618 76.6012,90.7284 77,90.5C 79.2103,91.4903 79.7103,92.8236 78.5,94.5 Z"/></g>
<g><path style="opacity:1" fill="#e6cdc5" d="M 103.5,85.5 C 103.389,86.1174 103.056,86.6174 102.5,87C 103.416,87.2784 104.082,87.7784 104.5,88.5C 102.088,88.6941 101.088,90.0274 101.5,92.5C 102.833,92.5 104.167,92.5 105.5,92.5C 105.5,91.5 105.5,90.5 105.5,89.5C 106.167,89.5 106.833,89.5 107.5,89.5C 106.167,90.8333 106.167,92.1667 107.5,93.5C 103.846,93.9422 100.179,94.2756 96.5,94.5C 97.1786,90.1124 99.512,87.1124 103.5,85.5 Z"/></g>
<g><path style="opacity:1" fill="#f8f6f3" d="M 128.5,85.5 C 128.5,86.1667 128.833,86.5 129.5,86.5C 130.582,87.5938 131.248,88.9271 131.5,90.5C 128.589,95.2084 127.923,100.208 129.5,105.5C 128.338,107.538 126.672,108.872 124.5,109.5C 120.158,109.261 115.824,108.927 111.5,108.5C 107.709,107.047 103.709,105.881 99.5,105C 96.8999,102.016 95.8999,98.5164 96.5,94.5C 100.179,94.2756 103.846,93.9422 107.5,93.5C 110.167,93.8333 112.833,94.1667 115.5,94.5C 115.785,92.712 115.452,91.0453 114.5,89.5C 113.749,90.376 113.249,91.376 113,92.5C 112.692,91.6919 112.192,91.0253 111.5,90.5C 109.781,91.7887 108.447,91.4554 107.5,89.5C 106.833,89.5 106.167,89.5 105.5,89.5C 105.5,88.8333 105.167,88.5 104.5,88.5C 104.082,87.7784 103.416,87.2784 102.5,87C 103.056,86.6174 103.389,86.1174 103.5,85.5C 104.058,84.2101 105.058,83.3768 106.5,83C 114.115,81.8275 121.449,82.6608 128.5,85.5 Z"/></g>
<g><path style="opacity:1" fill="#744534" d="M 121.5,91.5 C 121.912,93.9726 120.912,95.3059 118.5,95.5C 117.699,93.9582 117.366,92.2915 117.5,90.5C 119.099,90.2322 120.432,90.5655 121.5,91.5 Z"/></g>
<g><path style="opacity:1" fill="#dcc7ad" d="M 85.5,97.5 C 83.9731,97.573 82.9731,96.9063 82.5,95.5C 82.3505,94.448 82.5172,93.448 83,92.5C 84.3068,93.7717 85.8068,94.7717 87.5,95.5C 87.1445,96.5223 86.4778,97.189 85.5,97.5 Z"/></g>
<g><path style="opacity:1" fill="#784d3c" d="M 161.5,96.5 C 161.5,97.8333 160.833,98.5 159.5,98.5C 154.402,96.8479 154.402,94.8479 159.5,92.5C 160.172,93.9492 160.839,95.2825 161.5,96.5 Z"/></g>
<g><path style="opacity:1" fill="#e2c49e" d="M 226.5,92.5 C 228.262,94.7005 230.596,95.8672 233.5,96C 231.519,96.6054 231.185,97.6054 232.5,99C 229.888,98.9015 227.221,98.5682 224.5,98C 227.581,97.009 228.248,95.1757 226.5,92.5 Z"/></g>
<g><path style="opacity:1" fill="#815d4e" d="M 242.5,95.5 C 241.923,99.5775 239.59,101.744 235.5,102C 235.799,100.68 235.966,99.1796 236,97.5C 238.316,96.4776 238.816,94.9776 237.5,93C 238,92.8333 238.5,92.6667 239,92.5C 240.174,93.5442 241.341,94.5442 242.5,95.5 Z"/></g>
<g><path style="opacity:1" fill="#7c5344" d="M 144.5,97.5 C 142.83,97.7512 141.33,98.4178 140,99.5C 139.536,98.9056 139.369,98.2389 139.5,97.5C 140.091,96.8485 140.757,96.1818 141.5,95.5C 140.106,94.3131 140.273,93.6465 142,93.5C 143.261,93.7591 144.261,94.4258 145,95.5C 146.751,94.8263 148.417,94.493 150,94.5C 151.316,97.028 152.483,97.028 153.5,94.5C 154.89,96.4946 154.39,97.828 152,98.5C 149.582,98.6302 147.082,98.2968 144.5,97.5 Z"/></g>
<g><path style="opacity:1" fill="#845041" d="M 197.5,93.5 C 200.244,94.0717 201.077,95.7383 200,98.5C 195.164,101.821 192.664,100.488 192.5,94.5C 194.415,94.7845 196.081,94.4511 197.5,93.5 Z"/></g>
<g><path style="opacity:1" fill="#783e1f" d="M 69.5,77.5 C 69.335,80.8499 69.5017,84.1832 70,87.5C 70.3826,88.056 70.8826,88.3893 71.5,88.5C 71.4614,89.7562 71.9614,90.7562 73,91.5C 73.7796,89.6131 73.6129,87.9464 72.5,86.5C 72.1936,83.6146 72.5269,80.9479 73.5,78.5C 73.3367,80.8568 73.5034,83.1902 74,85.5C 75.3431,86.2135 76.6764,85.8802 78,84.5C 78.9774,87.259 78.144,89.259 75.5,90.5C 75.6236,91.1067 75.9569,91.44 76.5,91.5C 76.427,93.0269 77.0937,94.0269 78.5,94.5C 79.5676,95.4345 80.901,95.7678 82.5,95.5C 82.9731,96.9063 83.9731,97.573 85.5,97.5C 85.2786,98.7348 84.6119,99.7348 83.5,100.5C 86.8382,101.976 90.3382,102.976 94,103.5C 95.1685,104.009 96.0019,104.842 96.5,106C 101.399,107.45 106.399,108.284 111.5,108.5C 115.824,108.927 120.158,109.261 124.5,109.5C 127.421,109.854 129.754,108.854 131.5,106.5C 132.183,106.863 132.85,107.196 133.5,107.5C 134.398,110.396 136.065,112.729 138.5,114.5C 117.536,113.775 97.5361,109.109 78.5,100.5C 75.8292,98.0659 72.9958,95.7326 70,93.5C 69.9515,97.5392 70.4515,101.539 71.5,105.5C 69.2114,100.341 67.5447,95.0078 66.5,89.5C 62.7858,89.4098 59.4525,88.4098 56.5,86.5C 54.7215,85.3303 53.7215,83.6636 53.5,81.5C 55.6148,83.8907 58.2814,85.2241 61.5,85.5C 62.9187,86.4511 64.5853,86.7845 66.5,86.5C 66.7947,84.2646 66.4614,82.2646 65.5,80.5C 63.847,80.3404 62.5137,79.6737 61.5,78.5C 64.2788,78.7214 66.9455,78.388 69.5,77.5 Z"/></g>
<g><path style="opacity:1" fill="#cf5c33" d="M 72.5,86.5 C 73.6129,87.9464 73.7796,89.6131 73,91.5C 71.9614,90.7562 71.4614,89.7562 71.5,88.5C 71.3284,87.5084 71.6618,86.8417 72.5,86.5 Z"/></g>
<g><path style="opacity:1" fill="#f2d8d4" d="M 121.5,91.5 C 122.404,92.209 122.737,93.209 122.5,94.5C 126.161,94.3501 127.161,95.8501 125.5,99C 121.795,100.313 119.462,99.1461 118.5,95.5C 120.912,95.3059 121.912,93.9726 121.5,91.5 Z"/></g>
<g><path style="opacity:1" fill="#724234" d="M 186.5,94.5 C 190.082,94.2071 191.416,95.5404 190.5,98.5C 189.033,99.2916 187.7,99.2916 186.5,98.5C 187.807,97.135 187.807,95.8016 186.5,94.5 Z"/></g>
<g><path style="opacity:1" fill="#ebdad4" d="M 210.5,89.5 C 216.78,95.1753 217.113,101.175 211.5,107.5C 211.473,104.77 212.14,102.27 213.5,100C 213.167,99.1667 212.833,98.3333 212.5,97.5C 209.435,100.473 207.102,100.14 205.5,96.5C 206.338,96.1583 206.672,95.4916 206.5,94.5C 210.471,94.4787 211.804,92.8121 210.5,89.5 Z"/></g>
<g><path style="opacity:1" fill="#794c38" d="M 145.5,76.5 C 146.492,76.3284 147.158,76.6618 147.5,77.5C 142.011,79.6513 137.345,82.9847 133.5,87.5C 133.624,88.1067 133.957,88.44 134.5,88.5C 133.722,89.1556 133.056,89.9889 132.5,91C 132.836,92.0299 133.503,92.5299 134.5,92.5C 132.252,97.3284 131.918,102.328 133.5,107.5C 132.85,107.196 132.183,106.863 131.5,106.5C 129.754,108.854 127.421,109.854 124.5,109.5C 126.672,108.872 128.338,107.538 129.5,105.5C 127.923,100.208 128.589,95.2084 131.5,90.5C 131.248,88.9271 130.582,87.5938 129.5,86.5C 130.492,86.6716 131.158,86.3382 131.5,85.5C 134.651,83.417 137.651,81.0837 140.5,78.5C 140.833,78.5 141.167,78.5 141.5,78.5C 142.833,77.8333 144.167,77.1667 145.5,76.5 Z"/></g>
<g><path style="opacity:1" fill="#e1cbb3" d="M 87.5,98.5 C 89.288,98.2148 90.9547,98.5481 92.5,99.5C 90.7369,101.936 88.7369,102.103 86.5,100C 87.056,99.6174 87.3893,99.1174 87.5,98.5 Z"/></g>
<g><path style="opacity:1" fill="#845f50" d="M 221.5,88.5 C 226.14,87.736 230.14,88.9026 233.5,92C 230.486,91.8551 227.486,91.3551 224.5,90.5C 225.211,93.8638 224.044,96.1971 221,97.5C 220.517,98.448 220.351,99.448 220.5,100.5C 225.121,99.9927 229.454,100.826 233.5,103C 221.51,107.626 216.344,103.793 218,91.5C 219.145,90.3636 220.312,89.3636 221.5,88.5 Z"/></g>
<g><path style="opacity:1" fill="#eed3ce" d="M 139.5,97.5 C 139.369,98.2389 139.536,98.9056 140,99.5C 141.33,98.4178 142.83,97.7512 144.5,97.5C 143.198,102.188 140.365,103.521 136,101.5C 135.51,100.207 135.343,98.8734 135.5,97.5C 136.833,97.5 138.167,97.5 139.5,97.5 Z"/></g>
<g><path style="opacity:1" fill="#f4d7d3" d="M 161.5,96.5 C 163.5,96.8333 165.5,97.1667 167.5,97.5C 167.532,102.213 165.199,103.713 160.5,102C 159.663,100.989 159.33,99.8221 159.5,98.5C 160.833,98.5 161.5,97.8333 161.5,96.5 Z"/></g>
<g><path style="opacity:1" fill="#f0d8d3" d="M 186.5,94.5 C 187.807,95.8016 187.807,97.135 186.5,98.5C 187.7,99.2916 189.033,99.2916 190.5,98.5C 188.96,102.053 186.293,103.22 182.5,102C 181.253,100.506 181.253,99.0064 182.5,97.5C 184.16,96.8284 185.493,95.8284 186.5,94.5 Z"/></g>
<g><path style="opacity:1" fill="#80371b" d="M 260.5,86.5 C 260.833,86.5 261.167,86.5 261.5,86.5C 261.762,87.9778 261.429,89.3112 260.5,90.5C 257.07,93.263 254.07,96.263 251.5,99.5C 249.95,100.441 248.284,101.107 246.5,101.5C 245.624,101.631 244.957,101.298 244.5,100.5C 243.972,98.6639 243.306,96.9972 242.5,95.5C 242.5,94.1667 242.5,92.8333 242.5,91.5C 245.167,91.1667 247.833,90.8333 250.5,90.5C 249.833,91.1667 249.167,91.8333 248.5,92.5C 247.508,92.3284 246.842,92.6618 246.5,93.5C 244.104,94.8275 244.104,96.4942 246.5,98.5C 248.911,97.6389 250.911,96.3056 252.5,94.5C 256.167,92.8333 258.833,90.1667 260.5,86.5 Z"/></g>
<g><path style="opacity:1" fill="#d16146" d="M 246.5,93.5 C 246.47,94.4972 246.97,95.1639 248,95.5C 249.44,94.8524 250.94,94.5191 252.5,94.5C 250.911,96.3056 248.911,97.6389 246.5,98.5C 244.104,96.4942 244.104,94.8275 246.5,93.5 Z"/></g>
<g><path style="opacity:1" fill="#e99d7d" d="M 248.5,92.5 C 249.953,92.9293 251.619,93.096 253.5,93C 252.944,93.3826 252.611,93.8826 252.5,94.5C 250.94,94.5191 249.44,94.8524 248,95.5C 246.97,95.1639 246.47,94.4972 246.5,93.5C 246.842,92.6618 247.508,92.3284 248.5,92.5 Z"/></g>
<g><path style="opacity:1" fill="#fce385" d="M 254.5,112.5 C 249.56,116.316 244.56,120.149 239.5,124C 232.412,128.071 225.078,131.738 217.5,135C 216.619,135.708 215.953,136.542 215.5,137.5C 210.272,138.389 205.272,139.722 200.5,141.5C 179.36,145.31 158.026,147.31 136.5,147.5C 133.833,147.5 131.167,147.5 128.5,147.5C 120.173,146.585 112.173,144.418 104.5,141C 99.7768,138.978 95.4434,136.478 91.5,133.5C 91.0766,132.735 90.7432,131.902 90.5,131C 93.7366,125.674 92.7366,121.507 87.5,118.5C 86.5,117.167 85.5,115.833 84.5,114.5C 83.4489,113.778 82.7822,112.778 82.5,111.5C 83.9256,108.701 83.5923,106.034 81.5,103.5C 80.0998,102.9 79.0998,101.9 78.5,100.5C 97.5361,109.109 117.536,113.775 138.5,114.5C 155.325,115.497 172.325,115.83 189.5,115.5C 202.971,114.873 216.305,113.04 229.5,110C 230.942,109.623 231.942,108.79 232.5,107.5C 237.389,106.057 242.055,104.057 246.5,101.5C 248.284,101.107 249.95,100.441 251.5,99.5C 254.118,98.0553 256.618,96.3887 259,94.5C 258.761,100.788 257.261,106.788 254.5,112.5 Z"/></g>
<g><path style="opacity:1" fill="#f7e08c" d="M 78.5,100.5 C 79.0998,101.9 80.0998,102.9 81.5,103.5C 79.8333,103.5 78.1667,103.5 76.5,103.5C 76.5751,106.206 76.9084,108.873 77.5,111.5C 79.1667,111.5 80.8333,111.5 82.5,111.5C 82.7822,112.778 83.4489,113.778 84.5,114.5C 83.4138,114.62 82.7472,115.287 82.5,116.5C 83.4318,122.115 86.4318,125.782 91.5,127.5C 91.6567,126.127 91.49,124.793 91,123.5C 89.1978,122.211 88.0312,120.544 87.5,118.5C 92.7366,121.507 93.7366,125.674 90.5,131C 90.7432,131.902 91.0766,132.735 91.5,133.5C 86.6588,130.653 82.4921,126.986 79,122.5C 75.9905,116.94 73.4905,111.273 71.5,105.5C 70.4515,101.539 69.9515,97.5392 70,93.5C 72.9958,95.7326 75.8292,98.0659 78.5,100.5 Z"/></g>
<g><path style="opacity:1" fill="#fcf5c7" d="M 81.5,103.5 C 83.5923,106.034 83.9256,108.701 82.5,111.5C 80.8333,111.5 79.1667,111.5 77.5,111.5C 76.9084,108.873 76.5751,106.206 76.5,103.5C 78.1667,103.5 79.8333,103.5 81.5,103.5 Z"/></g>
<g><path style="opacity:1" fill="#fcfaef" d="M 77.5,104.5 C 81.3948,104.857 82.3948,106.857 80.5,110.5C 78.4469,109.061 77.4469,107.061 77.5,104.5 Z"/></g>
<g><path style="opacity:1" fill="#8e391f" d="M 171.5,107.5 C 172.833,107.5 174.167,107.5 175.5,107.5C 176.15,109.435 176.483,111.435 176.5,113.5C 173.753,113.813 171.086,113.48 168.5,112.5C 169.952,111.06 170.952,109.394 171.5,107.5 Z"/></g>
<g><path style="opacity:1" fill="#d25939" d="M 172.5,109.5 C 173.922,109.75 174.922,110.583 175.5,112C 171.141,113.228 170.141,112.395 172.5,109.5 Z"/></g>
<g><path style="opacity:1" fill="#eccd81" d="M 232.5,107.5 C 231.942,108.79 230.942,109.623 229.5,110C 216.305,113.04 202.971,114.873 189.5,115.5C 196.86,114.33 204.193,112.996 211.5,111.5C 218.587,110.581 225.587,109.248 232.5,107.5 Z"/></g>
<g><path style="opacity:1" fill="#723f16" d="M 211.5,111.5 C 204.193,112.996 196.86,114.33 189.5,115.5C 172.325,115.83 155.325,115.497 138.5,114.5C 162.926,115.172 187.26,114.172 211.5,111.5 Z"/></g>
<g><path style="opacity:1" fill="#fcfae1" d="M 84.5,114.5 C 85.5,115.833 86.5,117.167 87.5,118.5C 88.0312,120.544 89.1978,122.211 91,123.5C 91.49,124.793 91.6567,126.127 91.5,127.5C 86.4318,125.782 83.4318,122.115 82.5,116.5C 82.7472,115.287 83.4138,114.62 84.5,114.5 Z"/></g>
<g><path style="opacity:1" fill="#76442b" d="M 66.5,89.5 C 67.5447,95.0078 69.2114,100.341 71.5,105.5C 73.4905,111.273 75.9905,116.94 79,122.5C 82.4921,126.986 86.6588,130.653 91.5,133.5C 95.4434,136.478 99.7768,138.978 104.5,141C 112.173,144.418 120.173,146.585 128.5,147.5C 130.5,148.167 132.5,148.833 134.5,149.5C 134.918,150.222 135.584,150.722 136.5,151C 151.473,152.257 166.473,152.757 181.5,152.5C 170.679,153.495 159.679,153.828 148.5,153.5C 129.558,152.265 111.558,147.598 94.5,139.5C 79.8192,131.512 70.9858,119.179 68,102.5C 67.0775,98.2099 66.5775,93.8766 66.5,89.5 Z"/></g>
<g><path style="opacity:1" fill="#f8bf64" d="M 254.5,112.5 C 254.167,113.833 253.833,115.167 253.5,116.5C 250.546,121.39 246.879,125.723 242.5,129.5C 239.383,129.872 236.383,129.872 233.5,129.5C 232.5,130 231.5,130.5 230.5,131C 231.833,131.667 233.167,132.333 234.5,133C 232.323,134.202 229.989,134.702 227.5,134.5C 227.5,135.5 227.5,136.5 227.5,137.5C 225.43,137.449 223.597,138.115 222,139.5C 220.121,137.987 217.954,137.321 215.5,137.5C 215.953,136.542 216.619,135.708 217.5,135C 225.078,131.738 232.412,128.071 239.5,124C 244.56,120.149 249.56,116.316 254.5,112.5 Z"/></g>
<g><path style="opacity:1" fill="#784129" d="M 259.5,108.5 C 255.579,121.755 247.579,131.755 235.5,138.5C 220.997,145.778 205.664,150.444 189.5,152.5C 188.167,152.5 186.833,152.5 185.5,152.5C 186.152,151.275 187.319,150.608 189,150.5C 195.634,150.376 201.8,149.043 207.5,146.5C 214.029,143.931 220.696,141.431 227.5,139C 232.903,136.308 237.903,133.142 242.5,129.5C 246.879,125.723 250.546,121.39 253.5,116.5C 255.322,113.703 257.322,111.037 259.5,108.5 Z"/></g>
<g><path style="opacity:1" fill="#f6b865" d="M 242.5,129.5 C 237.903,133.142 232.903,136.308 227.5,139C 220.696,141.431 214.029,143.931 207.5,146.5C 198.252,148.283 188.918,149.283 179.5,149.5C 186.366,148.397 193.366,147.23 200.5,146C 205.778,144.256 205.778,142.756 200.5,141.5C 205.272,139.722 210.272,138.389 215.5,137.5C 217.954,137.321 220.121,137.987 222,139.5C 223.597,138.115 225.43,137.449 227.5,137.5C 227.5,136.5 227.5,135.5 227.5,134.5C 229.989,134.702 232.323,134.202 234.5,133C 233.167,132.333 231.833,131.667 230.5,131C 231.5,130.5 232.5,130 233.5,129.5C 236.383,129.872 239.383,129.872 242.5,129.5 Z"/></g>
<g><path style="opacity:1" fill="#dfdddc" d="M 235.5,138.5 C 233.842,142.672 231.175,146.172 227.5,149C 209.241,157.989 189.908,162.156 169.5,161.5C 149.969,161.524 130.636,159.69 111.5,156C 107.281,154.891 103.281,153.225 99.5,151C 96.0507,147.935 94.384,144.102 94.5,139.5C 111.558,147.598 129.558,152.265 148.5,153.5C 154.157,154.166 159.99,154.499 166,154.5C 174.066,154.721 181.899,154.055 189.5,152.5C 205.664,150.444 220.997,145.778 235.5,138.5 Z"/></g>
<g><path style="opacity:1" fill="#f9bd64" d="M 200.5,141.5 C 205.778,142.756 205.778,144.256 200.5,146C 193.366,147.23 186.366,148.397 179.5,149.5C 167.197,150.815 154.863,150.815 142.5,149.5C 140.5,148.833 138.5,148.167 136.5,147.5C 158.026,147.31 179.36,145.31 200.5,141.5 Z"/></g>
<g><path style="opacity:1" fill="#d29857" d="M 128.5,147.5 C 131.167,147.5 133.833,147.5 136.5,147.5C 138.5,148.167 140.5,148.833 142.5,149.5C 139.833,149.5 137.167,149.5 134.5,149.5C 132.5,148.833 130.5,148.167 128.5,147.5 Z"/></g>
<g><path style="opacity:1" fill="#793b1c" d="M 207.5,146.5 C 201.8,149.043 195.634,150.376 189,150.5C 187.319,150.608 186.152,151.275 185.5,152.5C 184.167,152.5 182.833,152.5 181.5,152.5C 166.473,152.757 151.473,152.257 136.5,151C 135.584,150.722 134.918,150.222 134.5,149.5C 137.167,149.5 139.833,149.5 142.5,149.5C 154.863,150.815 167.197,150.815 179.5,149.5C 188.918,149.283 198.252,148.283 207.5,146.5 Z"/></g>
<g><path style="opacity:1" fill="#d3bfb8" d="M 181.5,152.5 C 182.833,152.5 184.167,152.5 185.5,152.5C 186.833,152.5 188.167,152.5 189.5,152.5C 181.899,154.055 174.066,154.721 166,154.5C 159.99,154.499 154.157,154.166 148.5,153.5C 159.679,153.828 170.679,153.495 181.5,152.5 Z"/></g>
</svg>
